<mxfile host="drawio-plugin" modified="2022-10-26T07:00:05.580Z" agent="5.0 (Windows NT 6.2; Win64; x64) AppleWebKit/537.36 (KHTML, like Gecko) Chrome/89.0.4389.114 Safari/537.36" etag="XYBR_EsYpITcIGYtmzPc" version="15.5.4" type="embed"><diagram id="C5RBs43oDa-KdzZeNtuy" name="Page-1"><mxGraphModel dx="2910" dy="1612" grid="0" gridSize="10" guides="1" tooltips="1" connect="1" arrows="1" fold="1" page="0" pageScale="1" pageWidth="2336" pageHeight="1654" background="none" math="0" shadow="0"><root><mxCell id="WIyWlLk6GJQsqaUBKTNV-0"/><mxCell id="WIyWlLk6GJQsqaUBKTNV-1" parent="WIyWlLk6GJQsqaUBKTNV-0"/><mxCell id="zkfFHV4jXpPFQw0GAbJ--6" value="GameMediator" style="swimlane;fontStyle=0;align=center;verticalAlign=top;childLayout=stackLayout;horizontal=1;startSize=26;horizontalStack=0;resizeParent=1;resizeLast=0;collapsible=1;marginBottom=0;rounded=0;shadow=0;strokeWidth=1;" parent="WIyWlLk6GJQsqaUBKTNV-1" vertex="1"><mxGeometry x="738" y="38" width="404" height="476" as="geometry"><mxRectangle x="281" width="160" height="26" as="alternateBounds"/></mxGeometry></mxCell><mxCell id="zkfFHV4jXpPFQw0GAbJ--7" value="# view_controller_: view::ViewController *" style="text;align=left;verticalAlign=top;spacingLeft=4;spacingRight=4;overflow=hidden;rotatable=0;points=[[0,0.5],[1,0.5]];portConstraint=eastwest;" parent="zkfFHV4jXpPFQw0GAbJ--6" vertex="1"><mxGeometry y="26" width="404" height="26" as="geometry"/></mxCell><mxCell id="zkfFHV4jXpPFQw0GAbJ--8" value="# kernel_controller_: kernel::KernelController *" style="text;align=left;verticalAlign=top;spacingLeft=4;spacingRight=4;overflow=hidden;rotatable=0;points=[[0,0.5],[1,0.5]];portConstraint=eastwest;rounded=0;shadow=0;html=0;" parent="zkfFHV4jXpPFQw0GAbJ--6" vertex="1"><mxGeometry y="52" width="404" height="26" as="geometry"/></mxCell><mxCell id="X3iBoTwYunZCs_lj_990-169" value="# events_controller_: events::EventsController *" style="text;align=left;verticalAlign=top;spacingLeft=4;spacingRight=4;overflow=hidden;rotatable=0;points=[[0,0.5],[1,0.5]];portConstraint=eastwest;rounded=0;shadow=0;html=0;" parent="zkfFHV4jXpPFQw0GAbJ--6" vertex="1"><mxGeometry y="78" width="404" height="26" as="geometry"/></mxCell><mxCell id="O_oIPhdlYZOM3jG4M40S-67" value="# map_maker_: mapmaker::MapMaker *" style="text;align=left;verticalAlign=top;spacingLeft=4;spacingRight=4;overflow=hidden;rotatable=0;points=[[0,0.5],[1,0.5]];portConstraint=eastwest;rounded=0;shadow=0;html=0;" parent="zkfFHV4jXpPFQw0GAbJ--6" vertex="1"><mxGeometry y="104" width="404" height="26" as="geometry"/></mxCell><mxCell id="X3iBoTwYunZCs_lj_990-0" value="# game_state_controller_: IGameState *" style="text;align=left;verticalAlign=top;spacingLeft=4;spacingRight=4;overflow=hidden;rotatable=0;points=[[0,0.5],[1,0.5]];portConstraint=eastwest;rounded=0;shadow=0;html=0;" parent="zkfFHV4jXpPFQw0GAbJ--6" vertex="1"><mxGeometry y="130" width="404" height="26" as="geometry"/></mxCell><mxCell id="1" value="# logger_controller_: logger::LoggerController *" style="text;align=left;verticalAlign=top;spacingLeft=4;spacingRight=4;overflow=hidden;rotatable=0;points=[[0,0.5],[1,0.5]];portConstraint=eastwest;rounded=0;shadow=0;html=0;" parent="zkfFHV4jXpPFQw0GAbJ--6" vertex="1"><mxGeometry y="156" width="404" height="26" as="geometry"/></mxCell><mxCell id="zkfFHV4jXpPFQw0GAbJ--9" value="" style="line;html=1;strokeWidth=1;align=left;verticalAlign=middle;spacingTop=-1;spacingLeft=3;spacingRight=3;rotatable=0;labelPosition=right;points=[];portConstraint=eastwest;" parent="zkfFHV4jXpPFQw0GAbJ--6" vertex="1"><mxGeometry y="182" width="404" height="8" as="geometry"/></mxCell><mxCell id="X3iBoTwYunZCs_lj_990-18" value="+ readField(): const engine::IField *" style="text;align=left;verticalAlign=top;spacingLeft=4;spacingRight=4;overflow=hidden;rotatable=0;points=[[0,0.5],[1,0.5]];portConstraint=eastwest;" parent="zkfFHV4jXpPFQw0GAbJ--6" vertex="1"><mxGeometry y="190" width="404" height="26" as="geometry"/></mxCell><mxCell id="3" value="+ getField(): engine::IField *" style="text;align=left;verticalAlign=top;spacingLeft=4;spacingRight=4;overflow=hidden;rotatable=0;points=[[0,0.5],[1,0.5]];portConstraint=eastwest;" parent="zkfFHV4jXpPFQw0GAbJ--6" vertex="1"><mxGeometry y="216" width="404" height="26" as="geometry"/></mxCell><mxCell id="4" value="+ setField(engine::IField *): void" style="text;align=left;verticalAlign=top;spacingLeft=4;spacingRight=4;overflow=hidden;rotatable=0;points=[[0,0.5],[1,0.5]];portConstraint=eastwest;" parent="zkfFHV4jXpPFQw0GAbJ--6" vertex="1"><mxGeometry y="242" width="404" height="26" as="geometry"/></mxCell><mxCell id="X3iBoTwYunZCs_lj_990-167" value="+ movePlayer(kernel::ICreature::Directions): void" style="text;align=left;verticalAlign=top;spacingLeft=4;spacingRight=4;overflow=hidden;rotatable=0;points=[[0,0.5],[1,0.5]];portConstraint=eastwest;" parent="zkfFHV4jXpPFQw0GAbJ--6" vertex="1"><mxGeometry y="268" width="404" height="26" as="geometry"/></mxCell><mxCell id="X3iBoTwYunZCs_lj_990-168" value="+ getPlayer(): kernel::ICreature *" style="text;align=left;verticalAlign=top;spacingLeft=4;spacingRight=4;overflow=hidden;rotatable=0;points=[[0,0.5],[1,0.5]];portConstraint=eastwest;" parent="zkfFHV4jXpPFQw0GAbJ--6" vertex="1"><mxGeometry y="294" width="404" height="26" as="geometry"/></mxCell><mxCell id="X3iBoTwYunZCs_lj_990-22" value="+ getCreatures(): std::vector&lt;kernel::ICreature*&gt; " style="text;align=left;verticalAlign=top;spacingLeft=4;spacingRight=4;overflow=hidden;rotatable=0;points=[[0,0.5],[1,0.5]];portConstraint=eastwest;" parent="zkfFHV4jXpPFQw0GAbJ--6" vertex="1"><mxGeometry y="320" width="404" height="26" as="geometry"/></mxCell><mxCell id="O_oIPhdlYZOM3jG4M40S-69" value="+ getState(): IGameState::State" style="text;align=left;verticalAlign=top;spacingLeft=4;spacingRight=4;overflow=hidden;rotatable=0;points=[[0,0.5],[1,0.5]];portConstraint=eastwest;" parent="zkfFHV4jXpPFQw0GAbJ--6" vertex="1"><mxGeometry y="346" width="404" height="26" as="geometry"/></mxCell><mxCell id="O_oIPhdlYZOM3jG4M40S-71" value="+ setState(IGameState::State): void" style="text;align=left;verticalAlign=top;spacingLeft=4;spacingRight=4;overflow=hidden;rotatable=0;points=[[0,0.5],[1,0.5]];portConstraint=eastwest;" parent="zkfFHV4jXpPFQw0GAbJ--6" vertex="1"><mxGeometry y="372" width="404" height="26" as="geometry"/></mxCell><mxCell id="O_oIPhdlYZOM3jG4M40S-70" value="+ getStateController(): IGameState *" style="text;align=left;verticalAlign=top;spacingLeft=4;spacingRight=4;overflow=hidden;rotatable=0;points=[[0,0.5],[1,0.5]];portConstraint=eastwest;" parent="zkfFHV4jXpPFQw0GAbJ--6" vertex="1"><mxGeometry y="398" width="404" height="26" as="geometry"/></mxCell><mxCell id="2" value="+ getMapMaker(): mapmaker::MapMaker *" style="text;align=left;verticalAlign=top;spacingLeft=4;spacingRight=4;overflow=hidden;rotatable=0;points=[[0,0.5],[1,0.5]];portConstraint=eastwest;" parent="zkfFHV4jXpPFQw0GAbJ--6" vertex="1"><mxGeometry y="424" width="404" height="26" as="geometry"/></mxCell><mxCell id="5" value="+ aksUser(const std::string &amp;, const std::vector&lt;std::string&gt; &amp;): std::string" style="text;align=left;verticalAlign=top;spacingLeft=4;spacingRight=4;overflow=hidden;rotatable=0;points=[[0,0.5],[1,0.5]];portConstraint=eastwest;" parent="zkfFHV4jXpPFQw0GAbJ--6" vertex="1"><mxGeometry y="450" width="404" height="26" as="geometry"/></mxCell><mxCell id="68" style="edgeStyle=orthogonalEdgeStyle;rounded=0;orthogonalLoop=1;jettySize=auto;html=1;dashed=1;endArrow=open;endFill=0;startSize=14;endSize=14;strokeWidth=1;" edge="1" parent="WIyWlLk6GJQsqaUBKTNV-1" source="O_oIPhdlYZOM3jG4M40S-76" target="61"><mxGeometry relative="1" as="geometry"><Array as="points"><mxPoint x="-791" y="189"/></Array></mxGeometry></mxCell><mxCell id="178" style="edgeStyle=orthogonalEdgeStyle;rounded=0;orthogonalLoop=1;jettySize=auto;html=1;endArrow=open;endFill=0;startSize=14;endSize=14;strokeWidth=1;" edge="1" parent="WIyWlLk6GJQsqaUBKTNV-1" source="O_oIPhdlYZOM3jG4M40S-76" target="148"><mxGeometry relative="1" as="geometry"><Array as="points"><mxPoint x="428" y="13"/><mxPoint x="-419" y="13"/></Array></mxGeometry></mxCell><mxCell id="O_oIPhdlYZOM3jG4M40S-76" value="logger::LoggerController" style="swimlane;fontStyle=0;align=center;verticalAlign=top;childLayout=stackLayout;horizontal=1;startSize=26;horizontalStack=0;resizeParent=1;resizeLast=0;collapsible=1;marginBottom=0;rounded=0;shadow=0;strokeWidth=1;" parent="WIyWlLk6GJQsqaUBKTNV-1" vertex="1"><mxGeometry x="273" y="129" width="310" height="294" as="geometry"><mxRectangle x="281" width="160" height="26" as="alternateBounds"/></mxGeometry></mxCell><mxCell id="O_oIPhdlYZOM3jG4M40S-77" value="# loggers_: std::vector&lt;ISubscriber *&gt;" style="text;align=left;verticalAlign=top;spacingLeft=4;spacingRight=4;overflow=hidden;rotatable=0;points=[[0,0.5],[1,0.5]];portConstraint=eastwest;" parent="O_oIPhdlYZOM3jG4M40S-76" vertex="1"><mxGeometry y="26" width="310" height="26" as="geometry"/></mxCell><mxCell id="7" value="# log_lvl_: std::vector&lt;LogLevel&gt;" style="text;align=left;verticalAlign=top;spacingLeft=4;spacingRight=4;overflow=hidden;rotatable=0;points=[[0,0.5],[1,0.5]];portConstraint=eastwest;" parent="O_oIPhdlYZOM3jG4M40S-76" vertex="1"><mxGeometry y="52" width="310" height="26" as="geometry"/></mxCell><mxCell id="O_oIPhdlYZOM3jG4M40S-78" value="# game_mediator_: GameMediator *" style="text;align=left;verticalAlign=top;spacingLeft=4;spacingRight=4;overflow=hidden;rotatable=0;points=[[0,0.5],[1,0.5]];portConstraint=eastwest;" parent="O_oIPhdlYZOM3jG4M40S-76" vertex="1"><mxGeometry y="78" width="310" height="26" as="geometry"/></mxCell><mxCell id="6" value="# errors_observer_: ErrorsObserver *" style="text;align=left;verticalAlign=top;spacingLeft=4;spacingRight=4;overflow=hidden;rotatable=0;points=[[0,0.5],[1,0.5]];portConstraint=eastwest;" parent="O_oIPhdlYZOM3jG4M40S-76" vertex="1"><mxGeometry y="104" width="310" height="26" as="geometry"/></mxCell><mxCell id="O_oIPhdlYZOM3jG4M40S-81" value="" style="line;html=1;strokeWidth=1;align=left;verticalAlign=middle;spacingTop=-1;spacingLeft=3;spacingRight=3;rotatable=0;labelPosition=right;points=[];portConstraint=eastwest;" parent="O_oIPhdlYZOM3jG4M40S-76" vertex="1"><mxGeometry y="130" width="310" height="8" as="geometry"/></mxCell><mxCell id="O_oIPhdlYZOM3jG4M40S-82" value="+ getProxy(events::EventChainLink *): EventProxy *" style="text;align=left;verticalAlign=top;spacingLeft=4;spacingRight=4;overflow=hidden;rotatable=0;points=[[0,0.5],[1,0.5]];portConstraint=eastwest;" parent="O_oIPhdlYZOM3jG4M40S-76" vertex="1"><mxGeometry y="138" width="310" height="26" as="geometry"/></mxCell><mxCell id="10" value="+ getProxy(kernel::ICreature *): PlayerProxy *" style="text;align=left;verticalAlign=top;spacingLeft=4;spacingRight=4;overflow=hidden;rotatable=0;points=[[0,0.5],[1,0.5]];portConstraint=eastwest;" parent="O_oIPhdlYZOM3jG4M40S-76" vertex="1"><mxGeometry y="164" width="310" height="26" as="geometry"/></mxCell><mxCell id="9" value="+ getProxy(kernel::IField *): FieldProxy *" style="text;align=left;verticalAlign=top;spacingLeft=4;spacingRight=4;overflow=hidden;rotatable=0;points=[[0,0.5],[1,0.5]];portConstraint=eastwest;" parent="O_oIPhdlYZOM3jG4M40S-76" vertex="1"><mxGeometry y="190" width="310" height="26" as="geometry"/></mxCell><mxCell id="8" value="+ getProxy(IGameState *): GameStateProxy *" style="text;align=left;verticalAlign=top;spacingLeft=4;spacingRight=4;overflow=hidden;rotatable=0;points=[[0,0.5],[1,0.5]];portConstraint=eastwest;" parent="O_oIPhdlYZOM3jG4M40S-76" vertex="1"><mxGeometry y="216" width="310" height="26" as="geometry"/></mxCell><mxCell id="O_oIPhdlYZOM3jG4M40S-83" value="+ catchException(std::exception &amp;): void" style="text;align=left;verticalAlign=top;spacingLeft=4;spacingRight=4;overflow=hidden;rotatable=0;points=[[0,0.5],[1,0.5]];portConstraint=eastwest;" parent="O_oIPhdlYZOM3jG4M40S-76" vertex="1"><mxGeometry y="242" width="310" height="26" as="geometry"/></mxCell><mxCell id="11" value="+ subscribeObserver(AbstractObserver *): void" style="text;align=left;verticalAlign=top;spacingLeft=4;spacingRight=4;overflow=hidden;rotatable=0;points=[[0,0.5],[1,0.5]];portConstraint=eastwest;" parent="O_oIPhdlYZOM3jG4M40S-76" vertex="1"><mxGeometry y="268" width="310" height="26" as="geometry"/></mxCell><mxCell id="O_oIPhdlYZOM3jG4M40S-88" style="edgeStyle=orthogonalEdgeStyle;rounded=0;orthogonalLoop=1;jettySize=auto;html=1;endArrow=openThin;endFill=0;startSize=14;endSize=14;startArrow=openThin;startFill=0;dashed=1;" parent="WIyWlLk6GJQsqaUBKTNV-1" source="O_oIPhdlYZOM3jG4M40S-76" target="zkfFHV4jXpPFQw0GAbJ--6" edge="1"><mxGeometry relative="1" as="geometry"><mxPoint x="1026" y="247" as="sourcePoint"/><mxPoint x="1250" y="247" as="targetPoint"/></mxGeometry></mxCell><mxCell id="12" value="logger::LoggerMessage" style="swimlane;fontStyle=0;align=center;verticalAlign=top;childLayout=stackLayout;horizontal=1;startSize=26;horizontalStack=0;resizeParent=1;resizeLast=0;collapsible=1;marginBottom=0;rounded=0;shadow=0;strokeWidth=1;" parent="WIyWlLk6GJQsqaUBKTNV-1" vertex="1"><mxGeometry x="-451" y="527" width="384" height="190" as="geometry"><mxRectangle x="281" width="160" height="26" as="alternateBounds"/></mxGeometry></mxCell><mxCell id="13" value="# message_: std::string" style="text;align=left;verticalAlign=top;spacingLeft=4;spacingRight=4;overflow=hidden;rotatable=0;points=[[0,0.5],[1,0.5]];portConstraint=eastwest;" parent="12" vertex="1"><mxGeometry y="26" width="384" height="26" as="geometry"/></mxCell><mxCell id="14" value="# lvl_: LogLevel" style="text;align=left;verticalAlign=top;spacingLeft=4;spacingRight=4;overflow=hidden;rotatable=0;points=[[0,0.5],[1,0.5]];portConstraint=eastwest;" parent="12" vertex="1"><mxGeometry y="52" width="384" height="26" as="geometry"/></mxCell><mxCell id="17" value="" style="line;html=1;strokeWidth=1;align=left;verticalAlign=middle;spacingTop=-1;spacingLeft=3;spacingRight=3;rotatable=0;labelPosition=right;points=[];portConstraint=eastwest;" parent="12" vertex="1"><mxGeometry y="78" width="384" height="8" as="geometry"/></mxCell><mxCell id="18" value="+ operator&lt;&lt;(std::ostream&amp;, const LoggerMessage&amp;): std::ostream&amp;" style="text;align=left;verticalAlign=top;spacingLeft=4;spacingRight=4;overflow=hidden;rotatable=0;points=[[0,0.5],[1,0.5]];portConstraint=eastwest;" parent="12" vertex="1"><mxGeometry y="86" width="384" height="26" as="geometry"/></mxCell><mxCell id="19" value="+ operator std::string(): std::string" style="text;align=left;verticalAlign=top;spacingLeft=4;spacingRight=4;overflow=hidden;rotatable=0;points=[[0,0.5],[1,0.5]];portConstraint=eastwest;" parent="12" vertex="1"><mxGeometry y="112" width="384" height="26" as="geometry"/></mxCell><mxCell id="20" value="+ getLevel(): LogLevel" style="text;align=left;verticalAlign=top;spacingLeft=4;spacingRight=4;overflow=hidden;rotatable=0;points=[[0,0.5],[1,0.5]];portConstraint=eastwest;" parent="12" vertex="1"><mxGeometry y="138" width="384" height="26" as="geometry"/></mxCell><mxCell id="21" value="# getPrefix(): std::string" style="text;align=left;verticalAlign=top;spacingLeft=4;spacingRight=4;overflow=hidden;rotatable=0;points=[[0,0.5],[1,0.5]];portConstraint=eastwest;" parent="12" vertex="1"><mxGeometry y="164" width="384" height="26" as="geometry"/></mxCell><mxCell id="35" style="edgeStyle=orthogonalEdgeStyle;rounded=0;orthogonalLoop=1;jettySize=auto;html=1;entryX=0.5;entryY=0;entryDx=0;entryDy=0;endArrow=open;endFill=0;endSize=14;startSize=14;strokeWidth=1;" edge="1" parent="WIyWlLk6GJQsqaUBKTNV-1" source="24" target="12"><mxGeometry relative="1" as="geometry"/></mxCell><mxCell id="24" value="logger::AbstractObserver" style="swimlane;fontStyle=0;align=center;verticalAlign=top;childLayout=stackLayout;horizontal=1;startSize=26;horizontalStack=0;resizeParent=1;resizeLast=0;collapsible=1;marginBottom=0;rounded=0;shadow=0;strokeWidth=1;" parent="WIyWlLk6GJQsqaUBKTNV-1" vertex="1"><mxGeometry x="-451" y="307" width="384" height="138" as="geometry"><mxRectangle x="281" width="160" height="26" as="alternateBounds"/></mxGeometry></mxCell><mxCell id="25" value="# subscribers_: std::vector&lt;ISubscriber *&gt;" style="text;align=left;verticalAlign=top;spacingLeft=4;spacingRight=4;overflow=hidden;rotatable=0;points=[[0,0.5],[1,0.5]];portConstraint=eastwest;" parent="24" vertex="1"><mxGeometry y="26" width="384" height="26" as="geometry"/></mxCell><mxCell id="27" value="" style="line;html=1;strokeWidth=1;align=left;verticalAlign=middle;spacingTop=-1;spacingLeft=3;spacingRight=3;rotatable=0;labelPosition=right;points=[];portConstraint=eastwest;" parent="24" vertex="1"><mxGeometry y="52" width="384" height="8" as="geometry"/></mxCell><mxCell id="28" value="+ subscribe(ISubscriber *): void" style="text;align=left;verticalAlign=top;spacingLeft=4;spacingRight=4;overflow=hidden;rotatable=0;points=[[0,0.5],[1,0.5]];portConstraint=eastwest;" parent="24" vertex="1"><mxGeometry y="60" width="384" height="26" as="geometry"/></mxCell><mxCell id="30" value="+ notify(const std::string &amp;): void" style="text;align=left;verticalAlign=top;spacingLeft=4;spacingRight=4;overflow=hidden;rotatable=0;points=[[0,0.5],[1,0.5]];portConstraint=eastwest;" parent="24" vertex="1"><mxGeometry y="86" width="384" height="26" as="geometry"/></mxCell><mxCell id="34" value="# getLogLevel(): LogLevel" style="text;align=left;verticalAlign=top;spacingLeft=4;spacingRight=4;overflow=hidden;rotatable=0;points=[[0,0.5],[1,0.5]];portConstraint=eastwest;" vertex="1" parent="24"><mxGeometry y="112" width="384" height="26" as="geometry"/></mxCell><mxCell id="43" style="edgeStyle=orthogonalEdgeStyle;rounded=0;orthogonalLoop=1;jettySize=auto;html=1;endArrow=open;endFill=0;startSize=14;endSize=14;strokeWidth=1;dashed=1;" edge="1" parent="WIyWlLk6GJQsqaUBKTNV-1" source="36" target="12"><mxGeometry relative="1" as="geometry"/></mxCell><mxCell id="36" value="«interface»&#10;logger::ISubscriber" style="swimlane;fontStyle=0;align=center;verticalAlign=top;childLayout=stackLayout;horizontal=1;startSize=40;horizontalStack=0;resizeParent=1;resizeLast=0;collapsible=1;marginBottom=0;rounded=0;shadow=0;strokeWidth=1;" vertex="1" parent="WIyWlLk6GJQsqaUBKTNV-1"><mxGeometry x="45" y="585" width="384" height="74" as="geometry"><mxRectangle x="281" width="160" height="26" as="alternateBounds"/></mxGeometry></mxCell><mxCell id="38" value="" style="line;html=1;strokeWidth=1;align=left;verticalAlign=middle;spacingTop=-1;spacingLeft=3;spacingRight=3;rotatable=0;labelPosition=right;points=[];portConstraint=eastwest;" vertex="1" parent="36"><mxGeometry y="40" width="384" height="8" as="geometry"/></mxCell><mxCell id="40" value="+ notify(const LoggerMessage &amp;): void" style="text;align=left;verticalAlign=top;spacingLeft=4;spacingRight=4;overflow=hidden;rotatable=0;points=[[0,0.5],[1,0.5]];portConstraint=eastwest;" vertex="1" parent="36"><mxGeometry y="48" width="384" height="26" as="geometry"/></mxCell><mxCell id="42" style="edgeStyle=orthogonalEdgeStyle;rounded=0;orthogonalLoop=1;jettySize=auto;html=1;endArrow=diamondThin;endFill=1;endSize=14;startSize=14;" edge="1" parent="WIyWlLk6GJQsqaUBKTNV-1" source="36" target="O_oIPhdlYZOM3jG4M40S-76"><mxGeometry relative="1" as="geometry"><mxPoint x="272" y="499.9999999999999" as="sourcePoint"/><mxPoint x="502" y="499.9999999999999" as="targetPoint"/></mxGeometry></mxCell><mxCell id="45" style="edgeStyle=orthogonalEdgeStyle;rounded=0;orthogonalLoop=1;jettySize=auto;html=1;endArrow=open;endFill=0;startSize=14;endSize=14;strokeWidth=1;dashed=1;" edge="1" parent="WIyWlLk6GJQsqaUBKTNV-1" source="24" target="36"><mxGeometry relative="1" as="geometry"><mxPoint x="193" y="632.0000000000002" as="sourcePoint"/><mxPoint y="632.0000000000002" as="targetPoint"/><Array as="points"><mxPoint x="221" y="376"/></Array></mxGeometry></mxCell><mxCell id="54" style="edgeStyle=orthogonalEdgeStyle;rounded=0;orthogonalLoop=1;jettySize=auto;html=1;endArrow=block;endFill=0;startSize=14;endSize=14;strokeWidth=1;dashed=1;" edge="1" parent="WIyWlLk6GJQsqaUBKTNV-1" source="46" target="36"><mxGeometry relative="1" as="geometry"/></mxCell><mxCell id="46" value="logger::ConsoleLogger" style="swimlane;fontStyle=0;align=center;verticalAlign=top;childLayout=stackLayout;horizontal=1;startSize=26;horizontalStack=0;resizeParent=1;resizeLast=0;collapsible=1;marginBottom=0;rounded=0;shadow=0;strokeWidth=1;" vertex="1" parent="WIyWlLk6GJQsqaUBKTNV-1"><mxGeometry x="-105" y="928" width="299" height="86" as="geometry"><mxRectangle x="281" width="160" height="26" as="alternateBounds"/></mxGeometry></mxCell><mxCell id="47" value="# log_lvl_: const std::vector&lt;LogLevel&gt; &amp;" style="text;align=left;verticalAlign=top;spacingLeft=4;spacingRight=4;overflow=hidden;rotatable=0;points=[[0,0.5],[1,0.5]];portConstraint=eastwest;" vertex="1" parent="46"><mxGeometry y="26" width="299" height="26" as="geometry"/></mxCell><mxCell id="49" value="" style="line;html=1;strokeWidth=1;align=left;verticalAlign=middle;spacingTop=-1;spacingLeft=3;spacingRight=3;rotatable=0;labelPosition=right;points=[];portConstraint=eastwest;" vertex="1" parent="46"><mxGeometry y="52" width="299" height="8" as="geometry"/></mxCell><mxCell id="50" value="+ notify(const LoggerMessage &amp;): void" style="text;align=left;verticalAlign=top;spacingLeft=4;spacingRight=4;overflow=hidden;rotatable=0;points=[[0,0.5],[1,0.5]];portConstraint=eastwest;" vertex="1" parent="46"><mxGeometry y="60" width="299" height="26" as="geometry"/></mxCell><mxCell id="59" style="edgeStyle=orthogonalEdgeStyle;rounded=0;orthogonalLoop=1;jettySize=auto;html=1;endArrow=block;endFill=0;startSize=14;endSize=14;strokeWidth=1;dashed=1;" edge="1" parent="WIyWlLk6GJQsqaUBKTNV-1" source="55" target="36"><mxGeometry relative="1" as="geometry"/></mxCell><mxCell id="55" value="logger::FileLogger" style="swimlane;fontStyle=0;align=center;verticalAlign=top;childLayout=stackLayout;horizontal=1;startSize=26;horizontalStack=0;resizeParent=1;resizeLast=0;collapsible=1;marginBottom=0;rounded=0;shadow=0;strokeWidth=1;" vertex="1" parent="WIyWlLk6GJQsqaUBKTNV-1"><mxGeometry x="272" y="928" width="322" height="112" as="geometry"><mxRectangle x="281" width="160" height="26" as="alternateBounds"/></mxGeometry></mxCell><mxCell id="56" value="# log_lvl_: const std::vector&lt;LogLevel&gt; &amp;" style="text;align=left;verticalAlign=top;spacingLeft=4;spacingRight=4;overflow=hidden;rotatable=0;points=[[0,0.5],[1,0.5]];portConstraint=eastwest;" vertex="1" parent="55"><mxGeometry y="26" width="322" height="26" as="geometry"/></mxCell><mxCell id="60" value="# file_: std::ofstream" style="text;align=left;verticalAlign=top;spacingLeft=4;spacingRight=4;overflow=hidden;rotatable=0;points=[[0,0.5],[1,0.5]];portConstraint=eastwest;" vertex="1" parent="55"><mxGeometry y="52" width="322" height="26" as="geometry"/></mxCell><mxCell id="57" value="" style="line;html=1;strokeWidth=1;align=left;verticalAlign=middle;spacingTop=-1;spacingLeft=3;spacingRight=3;rotatable=0;labelPosition=right;points=[];portConstraint=eastwest;" vertex="1" parent="55"><mxGeometry y="78" width="322" height="8" as="geometry"/></mxCell><mxCell id="58" value="+ notify(const LoggerMessage &amp;): void" style="text;align=left;verticalAlign=top;spacingLeft=4;spacingRight=4;overflow=hidden;rotatable=0;points=[[0,0.5],[1,0.5]];portConstraint=eastwest;" vertex="1" parent="55"><mxGeometry y="86" width="322" height="26" as="geometry"/></mxCell><mxCell id="71" style="edgeStyle=orthogonalEdgeStyle;rounded=0;orthogonalLoop=1;jettySize=auto;html=1;endArrow=block;endFill=0;startSize=14;endSize=14;strokeWidth=1;" edge="1" parent="WIyWlLk6GJQsqaUBKTNV-1" source="61" target="24"><mxGeometry relative="1" as="geometry"><mxPoint x="-599" y="499.9999999999998" as="sourcePoint"/><mxPoint x="-451" y="499.9999999999998" as="targetPoint"/><Array as="points"><mxPoint x="-484" y="354"/><mxPoint x="-484" y="354"/></Array></mxGeometry></mxCell><mxCell id="61" value="logger::ErrorsObserver" style="swimlane;fontStyle=0;align=center;verticalAlign=top;childLayout=stackLayout;horizontal=1;startSize=26;horizontalStack=0;resizeParent=1;resizeLast=0;collapsible=1;marginBottom=0;rounded=0;shadow=0;strokeWidth=1;" vertex="1" parent="WIyWlLk6GJQsqaUBKTNV-1"><mxGeometry x="-983" y="303" width="384" height="86" as="geometry"><mxRectangle x="281" width="160" height="26" as="alternateBounds"/></mxGeometry></mxCell><mxCell id="63" value="" style="line;html=1;strokeWidth=1;align=left;verticalAlign=middle;spacingTop=-1;spacingLeft=3;spacingRight=3;rotatable=0;labelPosition=right;points=[];portConstraint=eastwest;" vertex="1" parent="61"><mxGeometry y="26" width="384" height="8" as="geometry"/></mxCell><mxCell id="65" value="+ catchException(const std::exception &amp;): void" style="text;align=left;verticalAlign=top;spacingLeft=4;spacingRight=4;overflow=hidden;rotatable=0;points=[[0,0.5],[1,0.5]];portConstraint=eastwest;" vertex="1" parent="61"><mxGeometry y="34" width="384" height="26" as="geometry"/></mxCell><mxCell id="66" value="# getLogLevel(): LogLevel" style="text;align=left;verticalAlign=top;spacingLeft=4;spacingRight=4;overflow=hidden;rotatable=0;points=[[0,0.5],[1,0.5]];portConstraint=eastwest;" vertex="1" parent="61"><mxGeometry y="60" width="384" height="26" as="geometry"/></mxCell><mxCell id="112" style="edgeStyle=orthogonalEdgeStyle;rounded=0;orthogonalLoop=1;jettySize=auto;html=1;dashed=1;endArrow=block;endFill=0;startSize=14;endSize=14;strokeWidth=1;" edge="1" parent="WIyWlLk6GJQsqaUBKTNV-1" source="72" target="87"><mxGeometry relative="1" as="geometry"/></mxCell><mxCell id="113" style="edgeStyle=orthogonalEdgeStyle;rounded=0;orthogonalLoop=1;jettySize=auto;html=1;endArrow=block;endFill=0;startSize=14;endSize=14;strokeWidth=1;" edge="1" parent="WIyWlLk6GJQsqaUBKTNV-1" source="72" target="24"><mxGeometry relative="1" as="geometry"><mxPoint x="-977" y="69" as="sourcePoint"/><Array as="points"><mxPoint x="-947" y="69"/><mxPoint x="-259" y="69"/></Array></mxGeometry></mxCell><mxCell id="72" value="logger::PlayerProxy" style="swimlane;fontStyle=0;align=center;verticalAlign=top;childLayout=stackLayout;horizontal=1;startSize=26;horizontalStack=0;resizeParent=1;resizeLast=0;collapsible=1;marginBottom=0;rounded=0;shadow=0;strokeWidth=1;" vertex="1" parent="WIyWlLk6GJQsqaUBKTNV-1"><mxGeometry x="-1139" y="-373.5" width="384" height="320" as="geometry"><mxRectangle x="281" width="160" height="26" as="alternateBounds"/></mxGeometry></mxCell><mxCell id="73" value="# player_: kernel::ICreature *" style="text;align=left;verticalAlign=top;spacingLeft=4;spacingRight=4;overflow=hidden;rotatable=0;points=[[0,0.5],[1,0.5]];portConstraint=eastwest;" vertex="1" parent="72"><mxGeometry y="26" width="384" height="26" as="geometry"/></mxCell><mxCell id="74" value="" style="line;html=1;strokeWidth=1;align=left;verticalAlign=middle;spacingTop=-1;spacingLeft=3;spacingRight=3;rotatable=0;labelPosition=right;points=[];portConstraint=eastwest;" vertex="1" parent="72"><mxGeometry y="52" width="384" height="8" as="geometry"/></mxCell><mxCell id="77" value="# getLogLevel(): LogLevel" style="text;align=left;verticalAlign=top;spacingLeft=4;spacingRight=4;overflow=hidden;rotatable=0;points=[[0,0.5],[1,0.5]];portConstraint=eastwest;" vertex="1" parent="72"><mxGeometry y="60" width="384" height="26" as="geometry"/></mxCell><mxCell id="78" value="+ setPoint(Point): void" style="text;align=left;verticalAlign=top;spacingLeft=4;spacingRight=4;overflow=hidden;rotatable=0;points=[[0,0.5],[1,0.5]];portConstraint=eastwest;" vertex="1" parent="72"><mxGeometry y="86" width="384" height="26" as="geometry"/></mxCell><mxCell id="79" value="+ setDamage(int): void" style="text;align=left;verticalAlign=top;spacingLeft=4;spacingRight=4;overflow=hidden;rotatable=0;points=[[0,0.5],[1,0.5]];portConstraint=eastwest;" vertex="1" parent="72"><mxGeometry y="112" width="384" height="26" as="geometry"/></mxCell><mxCell id="80" value="+ takeHit(int): void" style="text;align=left;verticalAlign=top;spacingLeft=4;spacingRight=4;overflow=hidden;rotatable=0;points=[[0,0.5],[1,0.5]];portConstraint=eastwest;" vertex="1" parent="72"><mxGeometry y="138" width="384" height="26" as="geometry"/></mxCell><mxCell id="81" value="+ heal(int): void" style="text;align=left;verticalAlign=top;spacingLeft=4;spacingRight=4;overflow=hidden;rotatable=0;points=[[0,0.5],[1,0.5]];portConstraint=eastwest;" vertex="1" parent="72"><mxGeometry y="164" width="384" height="26" as="geometry"/></mxCell><mxCell id="82" value="+ setDirection(kernel::ICreature::Direction): void" style="text;align=left;verticalAlign=top;spacingLeft=4;spacingRight=4;overflow=hidden;rotatable=0;points=[[0,0.5],[1,0.5]];portConstraint=eastwest;" vertex="1" parent="72"><mxGeometry y="190" width="384" height="26" as="geometry"/></mxCell><mxCell id="83" value="+ getPoint(): Point" style="text;align=left;verticalAlign=top;spacingLeft=4;spacingRight=4;overflow=hidden;rotatable=0;points=[[0,0.5],[1,0.5]];portConstraint=eastwest;" vertex="1" parent="72"><mxGeometry y="216" width="384" height="26" as="geometry"/></mxCell><mxCell id="84" value="+ getHp(): kernel::CreatureParam" style="text;align=left;verticalAlign=top;spacingLeft=4;spacingRight=4;overflow=hidden;rotatable=0;points=[[0,0.5],[1,0.5]];portConstraint=eastwest;" vertex="1" parent="72"><mxGeometry y="242" width="384" height="26" as="geometry"/></mxCell><mxCell id="85" value="+ getDirection(): kernel::ICreature::Direction" style="text;align=left;verticalAlign=top;spacingLeft=4;spacingRight=4;overflow=hidden;rotatable=0;points=[[0,0.5],[1,0.5]];portConstraint=eastwest;" vertex="1" parent="72"><mxGeometry y="268" width="384" height="26" as="geometry"/></mxCell><mxCell id="86" value="+ attack(): int" style="text;align=left;verticalAlign=top;spacingLeft=4;spacingRight=4;overflow=hidden;rotatable=0;points=[[0,0.5],[1,0.5]];portConstraint=eastwest;" vertex="1" parent="72"><mxGeometry y="294" width="384" height="26" as="geometry"/></mxCell><mxCell id="111" style="edgeStyle=orthogonalEdgeStyle;rounded=0;orthogonalLoop=1;jettySize=auto;html=1;endArrow=block;endFill=0;startSize=14;endSize=14;strokeWidth=1;dashed=1;" edge="1" parent="WIyWlLk6GJQsqaUBKTNV-1" source="87" target="100"><mxGeometry relative="1" as="geometry"/></mxCell><mxCell id="87" value="«interface»&#10;logger::ICreature" style="swimlane;fontStyle=0;align=center;verticalAlign=top;childLayout=stackLayout;horizontal=1;startSize=39;horizontalStack=0;resizeParent=1;resizeLast=0;collapsible=1;marginBottom=0;rounded=0;shadow=0;strokeWidth=1;" vertex="1" parent="WIyWlLk6GJQsqaUBKTNV-1"><mxGeometry x="-1583" y="-328" width="384" height="229" as="geometry"><mxRectangle x="281" width="160" height="26" as="alternateBounds"/></mxGeometry></mxCell><mxCell id="89" value="" style="line;html=1;strokeWidth=1;align=left;verticalAlign=middle;spacingTop=-1;spacingLeft=3;spacingRight=3;rotatable=0;labelPosition=right;points=[];portConstraint=eastwest;" vertex="1" parent="87"><mxGeometry y="39" width="384" height="8" as="geometry"/></mxCell><mxCell id="92" value="+ setDamage(int): void" style="text;align=left;verticalAlign=top;spacingLeft=4;spacingRight=4;overflow=hidden;rotatable=0;points=[[0,0.5],[1,0.5]];portConstraint=eastwest;" vertex="1" parent="87"><mxGeometry y="47" width="384" height="26" as="geometry"/></mxCell><mxCell id="93" value="+ takeHit(int): void" style="text;align=left;verticalAlign=top;spacingLeft=4;spacingRight=4;overflow=hidden;rotatable=0;points=[[0,0.5],[1,0.5]];portConstraint=eastwest;" vertex="1" parent="87"><mxGeometry y="73" width="384" height="26" as="geometry"/></mxCell><mxCell id="94" value="+ heal(int): void" style="text;align=left;verticalAlign=top;spacingLeft=4;spacingRight=4;overflow=hidden;rotatable=0;points=[[0,0.5],[1,0.5]];portConstraint=eastwest;" vertex="1" parent="87"><mxGeometry y="99" width="384" height="26" as="geometry"/></mxCell><mxCell id="95" value="+ setDirection(kernel::ICreature::Direction): void" style="text;align=left;verticalAlign=top;spacingLeft=4;spacingRight=4;overflow=hidden;rotatable=0;points=[[0,0.5],[1,0.5]];portConstraint=eastwest;" vertex="1" parent="87"><mxGeometry y="125" width="384" height="26" as="geometry"/></mxCell><mxCell id="97" value="+ getHp(): kernel::CreatureParam" style="text;align=left;verticalAlign=top;spacingLeft=4;spacingRight=4;overflow=hidden;rotatable=0;points=[[0,0.5],[1,0.5]];portConstraint=eastwest;" vertex="1" parent="87"><mxGeometry y="151" width="384" height="26" as="geometry"/></mxCell><mxCell id="98" value="+ getDirection(): kernel::ICreature::Direction" style="text;align=left;verticalAlign=top;spacingLeft=4;spacingRight=4;overflow=hidden;rotatable=0;points=[[0,0.5],[1,0.5]];portConstraint=eastwest;" vertex="1" parent="87"><mxGeometry y="177" width="384" height="26" as="geometry"/></mxCell><mxCell id="99" value="+ attack(): int" style="text;align=left;verticalAlign=top;spacingLeft=4;spacingRight=4;overflow=hidden;rotatable=0;points=[[0,0.5],[1,0.5]];portConstraint=eastwest;" vertex="1" parent="87"><mxGeometry y="203" width="384" height="26" as="geometry"/></mxCell><mxCell id="100" value="«interface»&#10;logger::IObject" style="swimlane;fontStyle=0;align=center;verticalAlign=top;childLayout=stackLayout;horizontal=1;startSize=39;horizontalStack=0;resizeParent=1;resizeLast=0;collapsible=1;marginBottom=0;rounded=0;shadow=0;strokeWidth=1;" vertex="1" parent="WIyWlLk6GJQsqaUBKTNV-1"><mxGeometry x="-2024" y="-264" width="384" height="99" as="geometry"><mxRectangle x="281" width="160" height="26" as="alternateBounds"/></mxGeometry></mxCell><mxCell id="101" value="" style="line;html=1;strokeWidth=1;align=left;verticalAlign=middle;spacingTop=-1;spacingLeft=3;spacingRight=3;rotatable=0;labelPosition=right;points=[];portConstraint=eastwest;" vertex="1" parent="100"><mxGeometry y="39" width="384" height="8" as="geometry"/></mxCell><mxCell id="102" value="+ setPoint(Point): void" style="text;align=left;verticalAlign=top;spacingLeft=4;spacingRight=4;overflow=hidden;rotatable=0;points=[[0,0.5],[1,0.5]];portConstraint=eastwest;" vertex="1" parent="100"><mxGeometry y="47" width="384" height="26" as="geometry"/></mxCell><mxCell id="107" value="+ getPoint(): Point" style="text;align=left;verticalAlign=top;spacingLeft=4;spacingRight=4;overflow=hidden;rotatable=0;points=[[0,0.5],[1,0.5]];portConstraint=eastwest;" vertex="1" parent="100"><mxGeometry y="73" width="384" height="26" as="geometry"/></mxCell><mxCell id="139" style="edgeStyle=orthogonalEdgeStyle;rounded=0;orthogonalLoop=1;jettySize=auto;html=1;endArrow=block;endFill=0;startSize=14;endSize=14;strokeWidth=1;" edge="1" parent="WIyWlLk6GJQsqaUBKTNV-1" source="114" target="130"><mxGeometry relative="1" as="geometry"/></mxCell><mxCell id="141" style="edgeStyle=orthogonalEdgeStyle;rounded=0;orthogonalLoop=1;jettySize=auto;html=1;endArrow=block;endFill=0;startSize=14;endSize=14;strokeWidth=1;" edge="1" parent="WIyWlLk6GJQsqaUBKTNV-1" source="114" target="24"><mxGeometry relative="1" as="geometry"><Array as="points"><mxPoint x="60" y="70"/><mxPoint x="-259" y="70"/></Array></mxGeometry></mxCell><mxCell id="114" value="logger::EventProxy" style="swimlane;fontStyle=0;align=center;verticalAlign=top;childLayout=stackLayout;horizontal=1;startSize=26;horizontalStack=0;resizeParent=1;resizeLast=0;collapsible=1;marginBottom=0;rounded=0;shadow=0;strokeWidth=1;" vertex="1" parent="WIyWlLk6GJQsqaUBKTNV-1"><mxGeometry x="-132" y="-270" width="384" height="112" as="geometry"><mxRectangle x="281" width="160" height="26" as="alternateBounds"/></mxGeometry></mxCell><mxCell id="115" value="# player_: kernel::ICreature *" style="text;align=left;verticalAlign=top;spacingLeft=4;spacingRight=4;overflow=hidden;rotatable=0;points=[[0,0.5],[1,0.5]];portConstraint=eastwest;" vertex="1" parent="114"><mxGeometry y="26" width="384" height="26" as="geometry"/></mxCell><mxCell id="116" value="" style="line;html=1;strokeWidth=1;align=left;verticalAlign=middle;spacingTop=-1;spacingLeft=3;spacingRight=3;rotatable=0;labelPosition=right;points=[];portConstraint=eastwest;" vertex="1" parent="114"><mxGeometry y="52" width="384" height="8" as="geometry"/></mxCell><mxCell id="117" value="# getLogLevel(): LogLevel" style="text;align=left;verticalAlign=top;spacingLeft=4;spacingRight=4;overflow=hidden;rotatable=0;points=[[0,0.5],[1,0.5]];portConstraint=eastwest;" vertex="1" parent="114"><mxGeometry y="60" width="384" height="26" as="geometry"/></mxCell><mxCell id="118" value="+ dispatch(Point): void" style="text;align=left;verticalAlign=top;spacingLeft=4;spacingRight=4;overflow=hidden;rotatable=0;points=[[0,0.5],[1,0.5]];portConstraint=eastwest;" vertex="1" parent="114"><mxGeometry y="86" width="384" height="26" as="geometry"/></mxCell><mxCell id="127" value="«interface»&#10;IEvent" style="swimlane;fontStyle=0;childLayout=stackLayout;horizontal=1;startSize=40;fillColor=none;horizontalStack=0;resizeParent=1;resizeParentMax=0;resizeLast=0;collapsible=1;marginBottom=0;" vertex="1" parent="WIyWlLk6GJQsqaUBKTNV-1"><mxGeometry x="838" y="-247" width="310" height="66" as="geometry"/></mxCell><mxCell id="128" value="+ dispatch(Point): void" style="text;strokeColor=none;fillColor=none;align=left;verticalAlign=top;spacingLeft=4;spacingRight=4;overflow=hidden;rotatable=0;points=[[0,0.5],[1,0.5]];portConstraint=eastwest;" vertex="1" parent="127"><mxGeometry y="40" width="310" height="26" as="geometry"/></mxCell><mxCell id="129" style="edgeStyle=orthogonalEdgeStyle;rounded=0;orthogonalLoop=1;jettySize=auto;html=1;dashed=1;startArrow=none;startFill=0;endArrow=block;endFill=0;startSize=14;endSize=14;" edge="1" parent="WIyWlLk6GJQsqaUBKTNV-1" source="130" target="127"><mxGeometry relative="1" as="geometry"/></mxCell><mxCell id="130" value="events::EventChainLink" style="swimlane;fontStyle=0;align=center;verticalAlign=top;childLayout=stackLayout;horizontal=1;startSize=26;horizontalStack=0;resizeParent=1;resizeLast=0;collapsible=1;marginBottom=0;rounded=0;shadow=0;strokeWidth=1;" vertex="1" parent="WIyWlLk6GJQsqaUBKTNV-1"><mxGeometry x="366" y="-322" width="349" height="216" as="geometry"><mxRectangle x="281" width="160" height="26" as="alternateBounds"/></mxGeometry></mxCell><mxCell id="131" value="# prev_chain_link_: EventChainLink *" style="text;align=left;verticalAlign=top;spacingLeft=4;spacingRight=4;overflow=hidden;rotatable=0;points=[[0,0.5],[1,0.5]];portConstraint=eastwest;" vertex="1" parent="130"><mxGeometry y="26" width="349" height="26" as="geometry"/></mxCell><mxCell id="132" value="# next_chain_link_: EventChainLink *" style="text;align=left;verticalAlign=top;spacingLeft=4;spacingRight=4;overflow=hidden;rotatable=0;points=[[0,0.5],[1,0.5]];portConstraint=eastwest;" vertex="1" parent="130"><mxGeometry y="52" width="349" height="26" as="geometry"/></mxCell><mxCell id="133" value="# transmit_checker_: std::function&lt;bool()&gt;" style="text;align=left;verticalAlign=top;spacingLeft=4;spacingRight=4;overflow=hidden;rotatable=0;points=[[0,0.5],[1,0.5]];portConstraint=eastwest;" vertex="1" parent="130"><mxGeometry y="78" width="349" height="26" as="geometry"/></mxCell><mxCell id="134" value="" style="line;html=1;strokeWidth=1;align=left;verticalAlign=middle;spacingTop=-1;spacingLeft=3;spacingRight=3;rotatable=0;labelPosition=right;points=[];portConstraint=eastwest;" vertex="1" parent="130"><mxGeometry y="104" width="349" height="8" as="geometry"/></mxCell><mxCell id="135" value="+ addNext(EventChainLink *, bool): EventChainLink *" style="text;align=left;verticalAlign=top;spacingLeft=4;spacingRight=4;overflow=hidden;rotatable=0;points=[[0,0.5],[1,0.5]];portConstraint=eastwest;" vertex="1" parent="130"><mxGeometry y="112" width="349" height="26" as="geometry"/></mxCell><mxCell id="136" value="+ getFirst(): EventChainLink *" style="text;align=left;verticalAlign=top;spacingLeft=4;spacingRight=4;overflow=hidden;rotatable=0;points=[[0,0.5],[1,0.5]];portConstraint=eastwest;" vertex="1" parent="130"><mxGeometry y="138" width="349" height="26" as="geometry"/></mxCell><mxCell id="137" value="+ setTransmitChecker(std::function&lt;bool()&gt;): EventChainLink *" style="text;align=left;verticalAlign=top;spacingLeft=4;spacingRight=4;overflow=hidden;rotatable=0;points=[[0,0.5],[1,0.5]];portConstraint=eastwest;" vertex="1" parent="130"><mxGeometry y="164" width="349" height="26" as="geometry"/></mxCell><mxCell id="138" value="+ dispatchNext(Point): void" style="text;align=left;verticalAlign=top;spacingLeft=4;spacingRight=4;overflow=hidden;rotatable=0;points=[[0,0.5],[1,0.5]];portConstraint=eastwest;" vertex="1" parent="130"><mxGeometry y="190" width="349" height="26" as="geometry"/></mxCell><mxCell id="142" style="edgeStyle=orthogonalEdgeStyle;rounded=0;orthogonalLoop=1;jettySize=auto;html=1;endArrow=open;endFill=0;endSize=14;startSize=14;strokeWidth=1;" edge="1" parent="WIyWlLk6GJQsqaUBKTNV-1" source="O_oIPhdlYZOM3jG4M40S-76" target="114"><mxGeometry relative="1" as="geometry"><mxPoint x="-175" y="-12" as="sourcePoint"/><mxPoint x="-175" y="70" as="targetPoint"/><Array as="points"><mxPoint x="428" y="-1"/><mxPoint x="104" y="-1"/></Array></mxGeometry></mxCell><mxCell id="145" style="edgeStyle=orthogonalEdgeStyle;rounded=0;orthogonalLoop=1;jettySize=auto;html=1;endArrow=open;endFill=0;endSize=14;startSize=14;strokeWidth=1;" edge="1" parent="WIyWlLk6GJQsqaUBKTNV-1" source="O_oIPhdlYZOM3jG4M40S-76" target="72"><mxGeometry relative="1" as="geometry"><mxPoint x="92.9971428571431" y="166.00000000000023" as="sourcePoint"/><mxPoint x="-445.00285714285735" y="-121" as="targetPoint"/><Array as="points"><mxPoint x="428" y="31"/><mxPoint x="-819" y="31"/></Array></mxGeometry></mxCell><mxCell id="174" style="edgeStyle=orthogonalEdgeStyle;rounded=0;orthogonalLoop=1;jettySize=auto;html=1;endArrow=block;endFill=0;startSize=14;endSize=14;strokeWidth=1;dashed=1;" edge="1" parent="WIyWlLk6GJQsqaUBKTNV-1" source="148" target="161"><mxGeometry relative="1" as="geometry"/></mxCell><mxCell id="175" style="edgeStyle=orthogonalEdgeStyle;rounded=0;orthogonalLoop=1;jettySize=auto;html=1;endArrow=block;endFill=0;startSize=14;endSize=14;strokeWidth=1;" edge="1" parent="WIyWlLk6GJQsqaUBKTNV-1" source="148" target="24"><mxGeometry relative="1" as="geometry"><Array as="points"><mxPoint x="-477" y="69"/><mxPoint x="-259" y="69"/></Array></mxGeometry></mxCell><mxCell id="148" value="logger::FieldProxy" style="swimlane;fontStyle=0;align=center;verticalAlign=top;childLayout=stackLayout;horizontal=1;startSize=26;horizontalStack=0;resizeParent=1;resizeLast=0;collapsible=1;marginBottom=0;rounded=0;shadow=0;strokeWidth=1;" vertex="1" parent="WIyWlLk6GJQsqaUBKTNV-1"><mxGeometry x="-640" y="-519" width="384" height="320" as="geometry"><mxRectangle x="281" width="160" height="26" as="alternateBounds"/></mxGeometry></mxCell><mxCell id="149" value="# field_: kernel::IField *" style="text;align=left;verticalAlign=top;spacingLeft=4;spacingRight=4;overflow=hidden;rotatable=0;points=[[0,0.5],[1,0.5]];portConstraint=eastwest;" vertex="1" parent="148"><mxGeometry y="26" width="384" height="26" as="geometry"/></mxCell><mxCell id="150" value="" style="line;html=1;strokeWidth=1;align=left;verticalAlign=middle;spacingTop=-1;spacingLeft=3;spacingRight=3;rotatable=0;labelPosition=right;points=[];portConstraint=eastwest;" vertex="1" parent="148"><mxGeometry y="52" width="384" height="8" as="geometry"/></mxCell><mxCell id="151" value="# getLogLevel(): LogLevel" style="text;align=left;verticalAlign=top;spacingLeft=4;spacingRight=4;overflow=hidden;rotatable=0;points=[[0,0.5],[1,0.5]];portConstraint=eastwest;" vertex="1" parent="148"><mxGeometry y="60" width="384" height="26" as="geometry"/></mxCell><mxCell id="152" value="+ change(const kernel::IField &amp;): void" style="text;align=left;verticalAlign=top;spacingLeft=4;spacingRight=4;overflow=hidden;rotatable=0;points=[[0,0.5],[1,0.5]];portConstraint=eastwest;" vertex="1" parent="148"><mxGeometry y="86" width="384" height="26" as="geometry"/></mxCell><mxCell id="153" value="+ change(kernel::IField &amp;&amp;): void" style="text;align=left;verticalAlign=top;spacingLeft=4;spacingRight=4;overflow=hidden;rotatable=0;points=[[0,0.5],[1,0.5]];portConstraint=eastwest;" vertex="1" parent="148"><mxGeometry y="112" width="384" height="26" as="geometry"/></mxCell><mxCell id="155" value="+ getCell(Point): kernel::Cell*" style="text;align=left;verticalAlign=top;spacingLeft=4;spacingRight=4;overflow=hidden;rotatable=0;points=[[0,0.5],[1,0.5]];portConstraint=eastwest;" vertex="1" parent="148"><mxGeometry y="138" width="384" height="26" as="geometry"/></mxCell><mxCell id="160" value="+ getPreservedPoint(Point): Point" style="text;align=left;verticalAlign=top;spacingLeft=4;spacingRight=4;overflow=hidden;rotatable=0;points=[[0,0.5],[1,0.5]];portConstraint=eastwest;" vertex="1" parent="148"><mxGeometry y="164" width="384" height="26" as="geometry"/></mxCell><mxCell id="159" value="+ getMoving(Point, Point): Point" style="text;align=left;verticalAlign=top;spacingLeft=4;spacingRight=4;overflow=hidden;rotatable=0;points=[[0,0.5],[1,0.5]];portConstraint=eastwest;" vertex="1" parent="148"><mxGeometry y="190" width="384" height="26" as="geometry"/></mxCell><mxCell id="158" value="+ getHeight(): int" style="text;align=left;verticalAlign=top;spacingLeft=4;spacingRight=4;overflow=hidden;rotatable=0;points=[[0,0.5],[1,0.5]];portConstraint=eastwest;" vertex="1" parent="148"><mxGeometry y="216" width="384" height="26" as="geometry"/></mxCell><mxCell id="157" value="+ getWidth(): int" style="text;align=left;verticalAlign=top;spacingLeft=4;spacingRight=4;overflow=hidden;rotatable=0;points=[[0,0.5],[1,0.5]];portConstraint=eastwest;" vertex="1" parent="148"><mxGeometry y="242" width="384" height="26" as="geometry"/></mxCell><mxCell id="156" value="+ readCell(Point): const kernel::Cell*" style="text;align=left;verticalAlign=top;spacingLeft=4;spacingRight=4;overflow=hidden;rotatable=0;points=[[0,0.5],[1,0.5]];portConstraint=eastwest;" vertex="1" parent="148"><mxGeometry y="268" width="384" height="26" as="geometry"/></mxCell><mxCell id="154" value="+ getAllCells(): std::vector&lt;std::vector&lt;kernel::Cell *&gt;&gt; &amp;" style="text;align=left;verticalAlign=top;spacingLeft=4;spacingRight=4;overflow=hidden;rotatable=0;points=[[0,0.5],[1,0.5]];portConstraint=eastwest;" vertex="1" parent="148"><mxGeometry y="294" width="384" height="26" as="geometry"/></mxCell><mxCell id="161" value="kernel::IField" style="swimlane;fontStyle=0;align=center;verticalAlign=top;childLayout=stackLayout;horizontal=1;startSize=26;horizontalStack=0;resizeParent=1;resizeLast=0;collapsible=1;marginBottom=0;rounded=0;shadow=0;strokeWidth=1;" vertex="1" parent="WIyWlLk6GJQsqaUBKTNV-1"><mxGeometry x="-640" y="-891" width="384" height="268" as="geometry"><mxRectangle x="281" width="160" height="26" as="alternateBounds"/></mxGeometry></mxCell><mxCell id="163" value="" style="line;html=1;strokeWidth=1;align=left;verticalAlign=middle;spacingTop=-1;spacingLeft=3;spacingRight=3;rotatable=0;labelPosition=right;points=[];portConstraint=eastwest;" vertex="1" parent="161"><mxGeometry y="26" width="384" height="8" as="geometry"/></mxCell><mxCell id="165" value="+ change(const kernel::IField &amp;): void" style="text;align=left;verticalAlign=top;spacingLeft=4;spacingRight=4;overflow=hidden;rotatable=0;points=[[0,0.5],[1,0.5]];portConstraint=eastwest;" vertex="1" parent="161"><mxGeometry y="34" width="384" height="26" as="geometry"/></mxCell><mxCell id="166" value="+ change(kernel::IField &amp;&amp;): void" style="text;align=left;verticalAlign=top;spacingLeft=4;spacingRight=4;overflow=hidden;rotatable=0;points=[[0,0.5],[1,0.5]];portConstraint=eastwest;" vertex="1" parent="161"><mxGeometry y="60" width="384" height="26" as="geometry"/></mxCell><mxCell id="167" value="+ getCell(Point): kernel::Cell*" style="text;align=left;verticalAlign=top;spacingLeft=4;spacingRight=4;overflow=hidden;rotatable=0;points=[[0,0.5],[1,0.5]];portConstraint=eastwest;" vertex="1" parent="161"><mxGeometry y="86" width="384" height="26" as="geometry"/></mxCell><mxCell id="168" value="+ getPreservedPoint(Point): Point" style="text;align=left;verticalAlign=top;spacingLeft=4;spacingRight=4;overflow=hidden;rotatable=0;points=[[0,0.5],[1,0.5]];portConstraint=eastwest;" vertex="1" parent="161"><mxGeometry y="112" width="384" height="26" as="geometry"/></mxCell><mxCell id="169" value="+ getMoving(Point, Point): Point" style="text;align=left;verticalAlign=top;spacingLeft=4;spacingRight=4;overflow=hidden;rotatable=0;points=[[0,0.5],[1,0.5]];portConstraint=eastwest;" vertex="1" parent="161"><mxGeometry y="138" width="384" height="26" as="geometry"/></mxCell><mxCell id="170" value="+ getHeight(): int" style="text;align=left;verticalAlign=top;spacingLeft=4;spacingRight=4;overflow=hidden;rotatable=0;points=[[0,0.5],[1,0.5]];portConstraint=eastwest;" vertex="1" parent="161"><mxGeometry y="164" width="384" height="26" as="geometry"/></mxCell><mxCell id="171" value="+ getWidth(): int" style="text;align=left;verticalAlign=top;spacingLeft=4;spacingRight=4;overflow=hidden;rotatable=0;points=[[0,0.5],[1,0.5]];portConstraint=eastwest;" vertex="1" parent="161"><mxGeometry y="190" width="384" height="26" as="geometry"/></mxCell><mxCell id="172" value="+ readCell(Point): const kernel::Cell*" style="text;align=left;verticalAlign=top;spacingLeft=4;spacingRight=4;overflow=hidden;rotatable=0;points=[[0,0.5],[1,0.5]];portConstraint=eastwest;" vertex="1" parent="161"><mxGeometry y="216" width="384" height="26" as="geometry"/></mxCell><mxCell id="173" value="+ getAllCells(): std::vector&lt;std::vector&lt;kernel::Cell *&gt;&gt; &amp;" style="text;align=left;verticalAlign=top;spacingLeft=4;spacingRight=4;overflow=hidden;rotatable=0;points=[[0,0.5],[1,0.5]];portConstraint=eastwest;" vertex="1" parent="161"><mxGeometry y="242" width="384" height="26" as="geometry"/></mxCell></root></mxGraphModel></diagram></mxfile>